<svg xmlns="http://www.w3.org/2000/svg" viewBox="0 0 537.55 454.76"><defs><style>.cls-1,.cls-18{fill:#007bff;}.cls-14,.cls-2,.cls-3,.cls-9{fill:#fff;}.cls-2{opacity:0.7;}.cls-11,.cls-12,.cls-13,.cls-16,.cls-17,.cls-19,.cls-4,.cls-7{fill:none;}.cls-13,.cls-14,.cls-15,.cls-18,.cls-19,.cls-4,.cls-5,.cls-6,.cls-7,.cls-8,.cls-9{stroke:#263238;}.cls-11,.cls-12,.cls-13,.cls-16,.cls-4,.cls-5,.cls-6,.cls-7,.cls-8,.cls-9{stroke-linecap:round;stroke-linejoin:round;}.cls-4{stroke-width:0.91px;}.cls-15,.cls-5,.cls-6,.cls-8{fill:#263238;}.cls-5{stroke-width:0.8px;}.cls-6{stroke-width:0.98px;}.cls-12,.cls-14,.cls-15,.cls-16,.cls-17,.cls-18,.cls-19,.cls-7,.cls-8,.cls-9{stroke-width:1.11px;}.cls-10{fill:#a3a3a3;}.cls-11,.cls-12{stroke:#fff;}.cls-11,.cls-13{stroke-width:2.22px;}.cls-14,.cls-15,.cls-17,.cls-18,.cls-19{stroke-miterlimit:10;}.cls-16,.cls-17{stroke:#696969;}</style></defs><title>4112337</title><g id="Background_Simple" data-name="Background Simple"><path class="cls-1" d="M361.42,9.11s-82.64-29.39-163.76,17.4-122,139.65-157.2,214-14.92,150.07,47,184.57,104-16.36,190.91-18.84,110.23,10,182.32-39.13,85.11-165,28.25-250.72S361.42,9.11,361.42,9.11Z"/><path class="cls-2" d="M361.42,9.11s-82.64-29.39-163.76,17.4-122,139.65-157.2,214-14.92,150.07,47,184.57,104-16.36,190.91-18.84,110.23,10,182.32-39.13,85.11-165,28.25-250.72S361.42,9.11,361.42,9.11Z"/></g><g id="Plants"><path class="cls-1" d="M129.14,195.79c3.29-.78,9.25-5.47,9.26-5.47s-4.29-3-4.58-3.14c-3.42-1.79-11.08-3.22-14.15-.19a5.11,5.11,0,0,0,.57,7.59C122.59,196.52,126.34,196.45,129.14,195.79Z"/><path class="cls-1" d="M144.43,211.77c2.85-1.55,7.08-7.18,7.41-7.63a92,92,0,0,0,10.1,6.61c2,1.16,4.13,2.27,6.24,3.35-1-.35-2-.65-2.1-.68-3.77-.82-11.53-.18-13.7,3.56a5.11,5.11,0,0,0,2.55,7.16c2.78,1.26,6.39.2,8.92-1.18s6.26-6.13,7.23-7.39l2.43,1.22c3.91,2,7.82,3.87,11.6,5.87,1.33.7,2.61,1.45,3.9,2.18-.92-.31-1.7-.56-1.82-.59-3.77-.82-11.53-.18-13.69,3.56a5.12,5.12,0,0,0,2.55,7.17c2.78,1.25,6.38.2,8.91-1.19s5.9-5.67,7.06-7.16c1.29.79,2.59,1.59,3.81,2.42.82.58,1.66,1.09,2.45,1.72s1.58,1.22,2.36,1.82c1.47,1.21,3,2.45,4.38,3.66,1,.84,1.89,1.66,2.82,2.48-1.32-.72-3.93-2.07-4.16-2.16-3.6-1.37-11.37-1.92-14.07,1.45a5.11,5.11,0,0,0,1.43,7.47c2.56,1.66,6.28,1.16,9,.18,3-1.08,7.84-5.79,8.45-6.38,1.52,1.36,3,2.7,4.36,4,3.69,3.45,6.79,6.56,9.22,9.06l2.3-1.72c-2.55-2.53-5.84-5.69-9.79-9.22-1.54-1.39-3.22-2.85-5-4.32a55.68,55.68,0,0,0,3-5.77c3.21.58,9.42-.58,10.22-.73.52,2,1,3.9,1.44,5.73,1.14,4.77,2,9,2.64,12.35l2.5-1.87c-.69-3.16-1.55-6.9-2.65-11.1-.53-2-1.12-4.15-1.76-6.34.75-.35,6.88-3.26,8.94-5.68,1.86-2.2,3.63-5.51,3-8.49a5.11,5.11,0,0,0-6.5-3.95c-4.09,1.36-6.3,8.83-6.26,12.68,0,.23.3,2.7.51,4.25-.27-.89-.51-1.76-.79-2.68-.55-1.82-1.15-3.61-1.79-5.55-.34-.92-.69-1.86-1-2.8s-.79-1.89-1.19-2.85c-1-2.2-2-4.39-3.17-6.57,1.59-.48,7.21-2.28,9.39-4.18s4.43-4.89,4.22-7.93a5.11,5.11,0,0,0-5.82-4.9c-4.26.73-7.57,7.78-8.12,11.6,0,.23-.12,3-.14,4.55-.69-1.31-1.38-2.61-2.12-3.91-2.15-3.74-4.44-7.46-6.71-11.19l-2.06-3.42c.57-.17,7.29-2.16,9.74-4.28,2.18-1.89,4.43-4.9,4.22-7.94a5.1,5.1,0,0,0-5.82-4.89c-4.26.72-7.57,7.77-8.12,11.59,0,.28-.16,4.29-.14,5.31-1.51-2.52-3-5-4.34-7.59a89.52,89.52,0,0,1-4.86-10.61c.26-.08,7.29-2.13,9.8-4.3,2.17-1.89,4.42-4.9,4.22-7.94a5.12,5.12,0,0,0-5.83-4.89c-4.26.72-7.57,7.77-8.12,11.59,0,.3-.17,4.61-.13,5.39-.08-.21-.19-.42-.27-.63a66.41,66.41,0,0,1-2.87-11.34c-.37-2.13-.6-4.18-.78-6.19,1.35-.24,7.49-1.44,10-3.15s4.93-4.38,5.06-7.43a5.11,5.11,0,0,0-5.25-5.5c-4.31.25-8.37,6.9-9.34,10.63,0,.2-.36,2.33-.56,3.88-.07-.91-.16-1.84-.21-2.71-.19-3.26-.16-6.26-.11-8.91,0-1.51.1-2.88.17-4.15,1.2-.93,6-4.75,7.35-7.36s2.37-6.16,1.08-8.93a5.12,5.12,0,0,0-7.2-2.46c-3.71,2.21-4.25,10-3.39,13.74.07.32,1.82,5.27,1.88,5.22l.08-.05c-.1,1.22-.19,2.54-.25,4-.11,2.66-.2,5.66-.08,8.94a91,91,0,0,0,.89,10.55,66.76,66.76,0,0,0,2.66,11.55.69.69,0,0,0,.05.13c-.74-1-2.91-3.82-3.11-4-2.69-2.76-9.52-6.51-13.38-4.59a5.12,5.12,0,0,0-1.83,7.39c1.63,2.57,5.22,3.68,8.09,3.93,3.23.27,9.87-2.09,10.4-2.28a90.9,90.9,0,0,0,4.77,11.08c1.06,2.1,2.19,4.17,3.35,6.24-.67-.86-1.27-1.63-1.37-1.73-2.69-2.76-9.52-6.51-13.39-4.59a5.12,5.12,0,0,0-1.82,7.39c1.62,2.58,5.21,3.69,8.08,3.93s8.61-1.66,10.11-2.18c.46.79.9,1.58,1.36,2.37,2.19,3.77,4.39,7.53,6.43,11.29.73,1.32,1.39,2.65,2.06,4-.6-.76-1.11-1.41-1.2-1.49-2.69-2.76-9.52-6.51-13.38-4.59a5.11,5.11,0,0,0-1.83,7.38c1.63,2.58,5.22,3.69,8.09,3.93s8-1.47,9.84-2.08c.64,1.38,1.28,2.76,1.85,4.12.36.94.77,1.83,1.08,2.79l1,2.82c.56,1.82,1.14,3.69,1.63,5.47.36,1.24.67,2.43,1,3.62-.7-1.32-2.14-3.89-2.28-4.09a19.91,19.91,0,0,0-7.93-6.12,5.45,5.45,0,0,0-.73-.86,5.11,5.11,0,0,0-7.6.29c-2.67,3.39-.39,10.84,1.77,14,.13.19,1.73,2.08,2.77,3.26-.71-.6-1.4-1.19-2.14-1.8-1.46-1.21-3-2.38-4.55-3.64l-2.41-1.77c-.79-.6-1.7-1.14-2.56-1.72-2-1.31-4.12-2.54-6.27-3.73,1.06-1.28,4.75-5.88,5.53-8.67s1-6.52-.86-8.95a5.11,5.11,0,0,0-7.56-.86c-3.15,3-2,10.66-.37,14.14.1.22,1.56,2.59,2.39,3.88-1.3-.71-2.59-1.42-3.92-2.09-3.86-1.94-7.82-3.78-11.77-5.63l-3.61-1.72c.39-.46,4.9-5.83,5.77-9,.77-2.77,1-6.52-.86-8.95a5.11,5.11,0,0,0-7.56-.86c-3.15,3-2,10.65-.38,14.14.13.26,2.24,3.67,2.81,4.51-2.64-1.27-5.26-2.56-7.8-3.93a92.1,92.1,0,0,1-9.91-6.17c.18-.21,4.91-5.8,5.8-9,.78-2.77,1-6.52-.86-8.94a5.1,5.1,0,0,0-7.55-.87c-3.16,2.95-2,10.66-.38,14.14.13.28,2.4,3.94,2.86,4.58-.18-.14-.39-.25-.57-.39a66,66,0,0,1-8.65-7.87c-1.48-1.57-2.81-3.16-4.07-4.73,1-.95,5.46-5.34,6.58-8.13s1.7-6.37.13-9a5.13,5.13,0,0,0-7.42-1.69c-3.46,2.59-3.18,10.37-1.93,14,.07.2,1,2.14,1.67,3.54-.55-.71-1.14-1.44-1.66-2.14-2-2.62-3.59-5.13-5-7.37-.8-1.28-1.5-2.45-2.15-3.56.49-1.43,2.36-7.25,2.08-10.19s-1.43-6.44-4-8a5.11,5.11,0,0,0-7.36,1.92c-1.88,3.89,2,10.67,4.75,13.33.24.23,4.42,3.39,4.45,3.32l0-.09c.6,1.07,1.25,2.22,2,3.46,1.38,2.27,3,4.83,4.87,7.5a92,92,0,0,0,6.56,8.31,66.4,66.4,0,0,0,8.59,8.16l.11.09c-1.18-.45-4.53-1.58-4.8-1.64-3.77-.82-11.53-.18-13.7,3.56a5.12,5.12,0,0,0,2.55,7.17C138.29,214.21,141.9,213.15,144.43,211.77Z"/><path class="cls-1" d="M191.44,151.06c.08,0-1.92-4.85-2.08-5.14-1.87-3.38-7.47-8.8-11.7-8A5.1,5.1,0,0,0,174,144.6c.89,2.92,4.05,4.93,6.76,5.92C183.88,151.69,191.44,151.06,191.44,151.06Z"/></g><g id="Device"><path class="cls-3" d="M413.74,41.37H342.85l-3,5.46a18.39,18.39,0,0,1-32.16,0l-2.95-5.46H233.9A13.52,13.52,0,0,0,220.21,54.7V419.76A13.52,13.52,0,0,0,233.9,433.1H413.74a13.53,13.53,0,0,0,13.7-13.34V54.7A13.52,13.52,0,0,0,413.74,41.37Z"/><rect class="cls-4" x="398.89" y="46.61" width="14.29" height="7.84"/><rect class="cls-5" x="398.89" y="46.61" width="11.15" height="7.84"/><rect class="cls-5" x="413.15" y="48.81" width="2.01" height="3.45"/><rect class="cls-6" x="232.01" y="49.04" width="2.62" height="4.49"/><rect class="cls-6" x="236.13" y="47.47" width="2.62" height="6.07"/><rect class="cls-6" x="240.25" y="45.6" width="2.62" height="7.93"/><line class="cls-7" x1="226.55" y1="57.13" x2="421.06" y2="57.13"/><path class="cls-8" d="M437.53,166.83a1.45,1.45,0,0,0,1.45-1.45V126.46a1.45,1.45,0,0,0-1.45-1.45h-3.78V50.67A18.69,18.69,0,0,0,415.06,32H232.58a18.69,18.69,0,0,0-18.69,18.69V434.32A18.69,18.69,0,0,0,232.58,453H415.06a18.69,18.69,0,0,0,18.69-18.69v-234h3.78a1.45,1.45,0,0,0,1.45-1.45V181.52a1.44,1.44,0,0,0-1.45-1.44h-3.78V166.83ZM427.44,419.76a13.53,13.53,0,0,1-13.7,13.34H233.9a13.52,13.52,0,0,1-13.69-13.34V54.7A13.52,13.52,0,0,1,233.9,41.37h70.89l2.95,5.46a18.39,18.39,0,0,0,32.16,0l3-5.46h70.89a13.52,13.52,0,0,1,13.7,13.33Z"/><path class="cls-9" d="M328.7,43.46a4.88,4.88,0,1,0-4.88,4.88A4.87,4.87,0,0,0,328.7,43.46Z"/></g><g id="Text_Balloons" data-name="Text Balloons"><path class="cls-10" d="M349.46,68.19h-110A8.39,8.39,0,0,0,231,76.58v45.07l9.92-10.51H349.46a8.38,8.38,0,0,0,8.39-8.39V76.58A8.39,8.39,0,0,0,349.46,68.19Z"/><path class="cls-3" d="M265.28,86.64a11.8,11.8,0,1,0-11.8,11.8A11.79,11.79,0,0,0,265.28,86.64Z"/><path class="cls-9" d="M259.43,86.91s1.24-1.65,1.52,0-2.12,3.71-2.12,3.71Z"/><path class="cls-9" d="M247.57,86.91s-1.23-1.65-1.51,0,2.11,3.71,2.11,3.71Z"/><path class="cls-9" d="M253.92,78.77s-4.67-.36-5.75,2.75-.35,8.14,0,9.1,3.36,5.62,4.19,6,2.88.24,3.23-.24,3.36-4.9,3.59-6.46a55.55,55.55,0,0,0-.13-6.86,4.28,4.28,0,0,0-2.63-3.72A7.91,7.91,0,0,0,253.92,78.77Z"/><path class="cls-8" d="M259.05,83a4.28,4.28,0,0,0-2.63-3.72,7.91,7.91,0,0,0-2.5-.55s-4.67-.36-5.75,2.75a15.23,15.23,0,0,0-.53,5.47c.24.27,1,1.11.9.05-.14-1.23-.28-5,.69-5.77s1.1-1.52,2.47-.42,1.24,2.07,2.62,1.38S256,80,257.2,80.58s.83,3.16.83,4.4,0,3.58.83,2.48a3.51,3.51,0,0,0,.36-.75C259.18,85.45,259.11,84.09,259.05,83Z"/><path class="cls-8" d="M251.93,95.85s1.48-2.95,2.42-1.88a6.18,6.18,0,0,1,1.24,2.39A2.78,2.78,0,0,1,251.93,95.85Z"/><path class="cls-8" d="M252.6,78.54a3.28,3.28,0,0,0-1.07-1.34l-.67-.4s1.61-.68,2.14-.14a11.52,11.52,0,0,1,.94,1.07s.27-1.87.94-1.2a12.1,12.1,0,0,0,1.21,1.07s-1.88.54-1.88,1.88"/><line class="cls-11" x1="272.23" y1="78.21" x2="296.67" y2="78.21"/><line class="cls-12" x1="272.23" y1="86.73" x2="347.04" y2="86.73"/><line class="cls-12" x1="272.23" y1="93.76" x2="347.04" y2="93.76"/><line class="cls-12" x1="272.23" y1="101.54" x2="347.04" y2="101.54"/><path class="cls-1" d="M407.84,129.08H297.78a8.39,8.39,0,0,0-8.38,8.39v26.17a8.39,8.39,0,0,0,8.38,8.39H406.31l9.92,10.51V137.47A8.39,8.39,0,0,0,407.84,129.08Z"/><line class="cls-13" x1="330.61" y1="139.1" x2="355.05" y2="139.1"/><line class="cls-7" x1="330.61" y1="147.61" x2="405.42" y2="147.61"/><line class="cls-7" x1="330.61" y1="154.65" x2="405.42" y2="154.65"/><line class="cls-7" x1="330.61" y1="162.43" x2="405.42" y2="162.43"/><path class="cls-3" d="M324.15,150a11.8,11.8,0,1,0-11.8,11.79A11.8,11.8,0,0,0,324.15,150Z"/><path class="cls-8" d="M310.87,141a5.5,5.5,0,0,0-5.57,3.81A36.77,36.77,0,0,0,303,156.38c0,2.44,4.83,4.36,7.47,4.57s8.58.1,10.62-3.15-1.27-9.86-2.09-13.92S313.71,140.83,310.87,141Z"/><path class="cls-9" d="M318.3,149.19s1.24-1.65,1.51,0-2.11,3.71-2.11,3.71Z"/><path class="cls-9" d="M306.44,149.19s-1.24-1.65-1.51,0S307,152.9,307,152.9Z"/><path class="cls-9" d="M312.79,141.05s-4.67-.36-5.75,2.75-.36,8.14,0,9.1,3.35,5.62,4.19,6,2.87.24,3.23-.24,3.35-4.9,3.59-6.46a55.55,55.55,0,0,0-.13-6.86,4.28,4.28,0,0,0-2.63-3.72A7.91,7.91,0,0,0,312.79,141.05Z"/><path class="cls-8" d="M309.24,142.26s7.55,6.93,9.06,6.93,1.71-5.11.08-7.54S309,137.79,309.24,142.26Z"/><path class="cls-10" d="M349.46,191.78h-110a8.39,8.39,0,0,0-8.39,8.39v45.07l9.92-10.51H349.46a8.39,8.39,0,0,0,8.39-8.39V200.17A8.38,8.38,0,0,0,349.46,191.78Z"/><circle class="cls-3" cx="253.48" cy="210.23" r="11.79" transform="translate(-38.21 363.09) rotate(-67.33)"/><path class="cls-9" d="M259.43,210.49s1.24-1.65,1.52,0-2.12,3.71-2.12,3.71Z"/><path class="cls-9" d="M247.57,210.49s-1.23-1.65-1.51,0,2.11,3.71,2.11,3.71Z"/><path class="cls-9" d="M253.92,202.35s-4.67-.35-5.75,2.76-.35,8.14,0,9.09,3.36,5.63,4.19,6,2.88.24,3.23-.24,3.36-4.91,3.59-6.46a55.52,55.52,0,0,0-.13-6.86,4.26,4.26,0,0,0-2.63-3.72A7.9,7.9,0,0,0,253.92,202.35Z"/><path class="cls-8" d="M259.05,206.63a4.26,4.26,0,0,0-2.63-3.72,7.9,7.9,0,0,0-2.5-.56s-4.67-.35-5.75,2.76a15.17,15.17,0,0,0-.53,5.46c.24.28,1,1.11.9.06-.14-1.24-.28-4.95.69-5.78s1.1-1.51,2.47-.41,1.24,2.06,2.62,1.37,1.65-2.2,2.88-1.65.83,3.17.83,4.41,0,3.57.83,2.47a3.4,3.4,0,0,0,.36-.74C259.18,209,259.11,207.67,259.05,206.63Z"/><path class="cls-8" d="M251.93,219.44s1.48-3,2.42-1.88a6.11,6.11,0,0,1,1.24,2.39A2.79,2.79,0,0,1,251.93,219.44Z"/><path class="cls-8" d="M252.6,202.12a3.34,3.34,0,0,0-1.07-1.34l-.67-.4s1.61-.67,2.14-.13a10.2,10.2,0,0,1,.94,1.07s.27-1.88.94-1.21a13.22,13.22,0,0,0,1.21,1.08s-1.88.53-1.88,1.87"/><line class="cls-11" x1="272.23" y1="201.79" x2="296.67" y2="201.79"/><line class="cls-12" x1="272.23" y1="210.31" x2="347.04" y2="210.31"/><line class="cls-12" x1="272.23" y1="217.35" x2="347.04" y2="217.35"/><line class="cls-12" x1="272.23" y1="225.13" x2="347.04" y2="225.13"/><path class="cls-10" d="M349.46,253.31h-110A8.39,8.39,0,0,0,231,261.7v45.07l9.92-10.51H349.46a8.39,8.39,0,0,0,8.39-8.39V261.7A8.39,8.39,0,0,0,349.46,253.31Z"/><circle class="cls-3" cx="253.48" cy="271.76" r="11.79" transform="translate(-94.98 400.91) rotate(-67.33)"/><path class="cls-9" d="M259.43,272s1.24-1.65,1.52,0-2.12,3.71-2.12,3.71Z"/><path class="cls-9" d="M247.57,272s-1.23-1.65-1.51,0,2.11,3.71,2.11,3.71Z"/><path class="cls-9" d="M253.92,263.89s-4.67-.36-5.75,2.75-.35,8.14,0,9.09,3.36,5.63,4.19,6,2.88.24,3.23-.24,3.36-4.91,3.59-6.46a55.55,55.55,0,0,0-.13-6.86,4.28,4.28,0,0,0-2.63-3.72A7.65,7.65,0,0,0,253.92,263.89Z"/><path class="cls-8" d="M259.05,268.16a4.28,4.28,0,0,0-2.63-3.72,7.65,7.65,0,0,0-2.5-.55s-4.67-.36-5.75,2.75a15.17,15.17,0,0,0-.53,5.46c.24.28,1,1.11.9.06-.14-1.24-.28-5,.69-5.78s1.1-1.51,2.47-.41,1.24,2.06,2.62,1.38,1.65-2.2,2.88-1.65.83,3.16.83,4.4,0,3.57.83,2.47a3.18,3.18,0,0,0,.36-.74C259.18,270.57,259.11,269.2,259.05,268.16Z"/><path class="cls-8" d="M251.93,281s1.48-3,2.42-1.88a6.11,6.11,0,0,1,1.24,2.39A2.78,2.78,0,0,1,251.93,281Z"/><path class="cls-8" d="M252.6,263.66a3.34,3.34,0,0,0-1.07-1.35l-.67-.4s1.61-.67,2.14-.13a10.2,10.2,0,0,1,.94,1.07s.27-1.88.94-1.21a13.22,13.22,0,0,0,1.21,1.08s-1.88.53-1.88,1.88"/><line class="cls-11" x1="272.23" y1="263.33" x2="296.67" y2="263.33"/><line class="cls-12" x1="272.23" y1="271.84" x2="347.04" y2="271.84"/><line class="cls-12" x1="272.23" y1="278.88" x2="347.04" y2="278.88"/><line class="cls-12" x1="272.23" y1="286.66" x2="347.04" y2="286.66"/><path class="cls-10" d="M349.46,369.27h-110a8.39,8.39,0,0,0-8.39,8.38v45.07l9.92-10.51H349.46a8.38,8.38,0,0,0,8.39-8.38V377.65A8.38,8.38,0,0,0,349.46,369.27Z"/><circle class="cls-3" cx="253.48" cy="387.72" r="11.79" transform="translate(-59.04 45.8) rotate(-9.25)"/><path class="cls-9" d="M259.43,388s1.24-1.65,1.52,0-2.12,3.71-2.12,3.71Z"/><path class="cls-9" d="M247.57,388s-1.23-1.65-1.51,0,2.11,3.71,2.11,3.71Z"/><path class="cls-9" d="M253.92,379.84s-4.67-.36-5.75,2.76-.35,8.13,0,9.09,3.36,5.63,4.19,6,2.88.23,3.23-.24,3.36-4.91,3.59-6.47a55.57,55.57,0,0,0-.13-6.86,4.25,4.25,0,0,0-2.63-3.71A7.9,7.9,0,0,0,253.92,379.84Z"/><path class="cls-8" d="M259.05,384.11a4.25,4.25,0,0,0-2.63-3.71,7.9,7.9,0,0,0-2.5-.56s-4.67-.36-5.75,2.76a15.15,15.15,0,0,0-.53,5.46c.24.28,1,1.11.9.06-.14-1.24-.28-4.95.69-5.78s1.1-1.51,2.47-.41,1.24,2.06,2.62,1.37,1.65-2.2,2.88-1.65.83,3.17.83,4.4,0,3.58.83,2.48a3.29,3.29,0,0,0,.36-.75C259.18,386.53,259.11,385.16,259.05,384.11Z"/><path class="cls-8" d="M251.93,396.92s1.48-2.95,2.42-1.87a6.11,6.11,0,0,1,1.24,2.39A2.79,2.79,0,0,1,251.93,396.92Z"/><path class="cls-8" d="M252.6,379.61a3.28,3.28,0,0,0-1.07-1.34l-.67-.4s1.61-.67,2.14-.14a10.89,10.89,0,0,1,.94,1.08s.27-1.88.94-1.21a12.1,12.1,0,0,0,1.21,1.07s-1.88.54-1.88,1.88"/><line class="cls-11" x1="272.23" y1="379.28" x2="296.67" y2="379.28"/><line class="cls-12" x1="272.23" y1="387.8" x2="347.04" y2="387.8"/><line class="cls-12" x1="272.23" y1="394.84" x2="347.04" y2="394.84"/><line class="cls-12" x1="272.23" y1="402.61" x2="347.04" y2="402.61"/><path class="cls-1" d="M407.84,314.71H297.78a8.38,8.38,0,0,0-8.38,8.39v26.17a8.39,8.39,0,0,0,8.38,8.39H406.31l9.92,10.51V323.1A8.39,8.39,0,0,0,407.84,314.71Z"/><line class="cls-13" x1="330.61" y1="324.72" x2="355.05" y2="324.72"/><line class="cls-7" x1="330.61" y1="333.24" x2="405.42" y2="333.24"/><line class="cls-7" x1="330.61" y1="340.28" x2="405.42" y2="340.28"/><line class="cls-7" x1="330.61" y1="348.05" x2="405.42" y2="348.05"/><path class="cls-3" d="M324.15,335.62a11.8,11.8,0,1,0-11.8,11.8A11.8,11.8,0,0,0,324.15,335.62Z"/><path class="cls-8" d="M310.87,326.66a5.5,5.5,0,0,0-5.57,3.82A36.77,36.77,0,0,0,303,342c0,2.44,4.83,4.37,7.47,4.57s8.58.1,10.62-3.15-1.27-9.85-2.09-13.91S313.71,326.46,310.87,326.66Z"/><path class="cls-9" d="M318.3,334.81s1.24-1.65,1.51,0-2.11,3.71-2.11,3.71Z"/><path class="cls-9" d="M306.44,334.81s-1.24-1.65-1.51,0,2.11,3.71,2.11,3.71Z"/><path class="cls-9" d="M312.79,326.68s-4.67-.36-5.75,2.75-.36,8.14,0,9.09,3.35,5.63,4.19,6,2.87.24,3.23-.24,3.35-4.91,3.59-6.46a55.52,55.52,0,0,0-.13-6.86,4.27,4.27,0,0,0-2.63-3.72A7.65,7.65,0,0,0,312.79,326.68Z"/><path class="cls-8" d="M309.24,327.88s7.55,6.93,9.06,6.93,1.71-5.1.08-7.54S309,323.41,309.24,327.88Z"/></g><g id="Character_2" data-name="Character 2"><path class="cls-14" d="M436,428.8l-1.24,22.29a3.46,3.46,0,0,0,2.1,1.85c1.35.24,30.78,0,30.78,0a7.6,7.6,0,0,0-.24-3.57,4.65,4.65,0,0,0-3.2-3.2c-1.48-.37-11.7-5.05-12.57-5.42s-1.35-6.28-1.35-6.28Z"/><path class="cls-14" d="M467.62,452.94a8,8,0,0,0,0-2.39l-32.84-.88-.08,1.42a3.46,3.46,0,0,0,2.1,1.85C438.19,453.18,467.62,452.94,467.62,452.94Z"/><path class="cls-15" d="M442.11,315.83s2.53,54.71,2.25,56.39l-9.54,57.52s8.13,4.49,12.06,5.33a71.89,71.89,0,0,0,9.26,1.12s12.91-52.46,13.47-55.55-6.46-69.58-6.46-69.58Z"/><path class="cls-14" d="M442.5,422.89s-11.45,15.76-10.1,17.37,11.33,11.08,13.8,12.19,25,0,25,0a6.49,6.49,0,0,0,.37-2c0-1-.12-4.81-1.47-5.91s-11.58-5.92-11.95-6.65-.86-6.78-.86-6.78Z"/><path class="cls-14" d="M471.19,452.45a6.49,6.49,0,0,0,.37-2V450l-15.64.59s-4.8.74-7.38-1.36c-2.17-1.75-11.66-10.4-14.7-13.17-1.15,2.09-1.82,3.72-1.44,4.19,1.36,1.6,11.33,11.08,13.8,12.19S471.19,452.45,471.19,452.45Z"/><path class="cls-15" d="M434,290.29s1.69,16.28,3.09,18.8,3.65,6.46,3.65,6.46L462,375.31l-21.88,48.26s16,10.38,19.36,11.5a17.65,17.65,0,0,0,4.49,1.12s25.81-60.32,25.81-64.53-18-64.53-18-64.53L473,286.37Z"/><polyline class="cls-16" points="455.28 295.34 467.08 300.06 457.3 292.31 464.05 295.34"/><polyline class="cls-17" points="448.5 336.34 462.03 375.31 442.39 420.48"/><line class="cls-17" x1="445.76" y1="328.45" x2="447.15" y2="332.47"/><path class="cls-14" d="M488.3,260.11s6.64-6.24,8-7,6.77-2.39,7.16-4.24-.13-11-.66-10.62-7.56,10.35-7.56,10.35l-9.16,7.17Z"/><line class="cls-14" x1="497.73" y1="245.64" x2="496.93" y2="251.75"/><line class="cls-14" x1="499.85" y1="242.46" x2="500.12" y2="249.89"/><path class="cls-14" d="M502,239.93s-.13,7.84,0,8.63"/><path class="cls-14" d="M503.83,246.7s2.26-2.78,1.73-4.64a3.6,3.6,0,0,0-2.13-2.39Z"/><path class="cls-18" d="M487.51,252.94c.4.27,3.58,5.18,3.58,5.18l-4,5.31s2,3.71.8,4.64-11.15,6.11-11.15,6.11l-3.32-13.41s7.43-4.64,7.83-4.51a4.1,4.1,0,0,1,1.06.8Z"/><polygon class="cls-15" points="491.74 251.15 493.12 252.1 507.74 231.18 506.36 230.22 491.74 251.15"/><path class="cls-18" d="M450.14,212.63c-.82.41-12.41,14.44-16.69,19.94s-3.86,14.44-3.66,19.33-2,41.09-2,41.09,17.7-1.42,28.28-2.44,25.63-2,25.63-2-4.27-18.72-6.3-27.06-5.29-20.35-7.53-26a79.3,79.3,0,0,0-5.5-11Z"/><path class="cls-14" d="M471.7,213.24l-6.51,7.32-10-12.61,5.9-6.92s3.46-3.66,5.5-3.25S471.7,213.24,471.7,213.24Z"/><polygon class="cls-15" points="464.79 205.71 468.76 216.78 471.7 213.24 464.79 205.71"/><path class="cls-15" d="M464,200.83s-2.44,3.86-4.47,3-7.53-6.71-10-14,6.51-8.54,7.93-11.39,2.65-3.26,4.68-13.23,24.82-6.1,28.28-.81,2.85,15.87,12.41,12.41,19.94-7.12,22.18,1.43-5.09,18.92-2.44,22.58,11.19,1,10.58,4.47-5.09,5.7-3.67,6.51,9.36-3.25,7.12.41-6.91,7.53-7.52,5.9,0-3.66-2.24-2.44-9,6.1-11.8,3.46.81-12.21-3.87-13.23-16.07,2.24-19.94,2.45-4.27-1-11.39-4.48S464,200.83,464,200.83Z"/><path class="cls-14" d="M465.6,195.13s12,.61,19.73-1.42a73.8,73.8,0,0,0,10.38-3.26s.2,7.94-1.83,10.17-4.68,4.28-4.68,5.91,2,4.27.81,5.69-4.07,1.43-4.88,1.43-7.32,6.1-9.15,6.1-11-12.21-11.19-14a64.32,64.32,0,0,1,0-6.51"/><path class="cls-19" d="M487,202.25l-2.24,2.65a3.8,3.8,0,0,1-3.05-2.65"/><path class="cls-19" d="M479.43,208.36s-.2,3.25,2.45,3.66"/><path class="cls-19" d="M484.52,198.79s3.66-1.22,5.29,1.83"/><path class="cls-14" d="M468.65,198.18s-3-9-5.9-5.69-1.22,8.95,1,10.17a4.52,4.52,0,0,0,4.27,0"/><path class="cls-18" d="M456,204.69s13.42,13.23,13,15.06-2.65,3.05-2.65,3.05.61,3.66-.4,4.48a5.45,5.45,0,0,1-2.24,1S451,215.07,449.32,213s-.4-3.06.61-3.46a12.36,12.36,0,0,1,2.24-.61S453.6,204.08,456,204.69Z"/><path class="cls-18" d="M436.57,234.25a94.5,94.5,0,0,0-1.26,14.31c0,7.15,2.94,42.3,4.42,44.19s7.36,3.58,9.89,1.89,24.41-15.78,24.62-18.09-3.37-10.74-4.84-11.37-2.74-.42-4.84,1.48a65,65,0,0,1-7.58,5s-1.47-26.94-3.15-33.46-2.53-7.79-3.58-8.21"/><path class="cls-14" d="M475.37,261.46s6-14.37,6.44-15.43,1.9-2.73,3.16-2.94,10.94-2.32,11.78-2.53,1.48.84-.84,2.32-8,2.1-8,2.1l-.85,6.31s5.69-4.42,5.69-2.1-4.21,3.79-4.84,4-2.32,2.94-2.95,3.36a16.6,16.6,0,0,1-3,1.06s-.42,2.52-1.26,3.36-4.63,3.58-4.63,3.58Z"/><path class="cls-14" d="M481.81,246s2.44-3,2.8-3a54,54,0,0,1,4.93,3.95c.3.3-1.58,3.35-1.87,3.85s-.4.89-1.19.59a5.8,5.8,0,0,1-1.48-.89"/><path class="cls-14" d="M481.16,248.48s2.66-3,3-3,3.75,2.66,3.75,3.16-.59,3.45-1.08,3.55a9.57,9.57,0,0,1-2.07-.2"/><path class="cls-14" d="M481.06,251.34a14.05,14.05,0,0,1,2.37-2.07c.78-.4,2.56,1.29,3.64,2s2.37,1.14,1.78,1.83-2.86-.3-3.35-.3a5.9,5.9,0,0,1-1.58-.49l-1.28,3.84"/><path class="cls-18" d="M468.35,265.81l7.36-5.89,3.37,6.31-6.32,6.53S468.35,271.92,468.35,265.81Z"/></g><g id="Character_1" data-name="Character 1"><path class="cls-14" d="M34,439.15a26.22,26.22,0,0,1-8.33-4.37c-3.31-2.87-13.83-10.66-16.87-12.68s-2.67,7.24-1.64,12a27.92,27.92,0,0,0,5.11,11.33c1.92,2.28,14.45,7,15.85,7.33s7,.41,8.14-.13S35,443.1,34,439.15Z"/><path class="cls-14" d="M12.89,441.54c-2.93-3.75-4.95-15.29-5.09-19.7-2,.46-1.56,8.1-.66,12.29a27.92,27.92,0,0,0,5.11,11.33c1.92,2.28,14.45,7,15.85,7.33a31.82,31.82,0,0,0,5.71.22C27,450.61,15.84,445.32,12.89,441.54Z"/><path class="cls-18" d="M170.7,370.64s-3.46,6.4-5.21,10.12-3.25,6.41-3.25,6.41-1.67-3.26-2.94-2.66a14.05,14.05,0,0,1-2.76.91s-1.58-5.66-4-8.63-4.47-1.54-6.71-3.52c-3.17-2.8-4.45-3.63-6.57-5.34-2.61-2.09-6.6,6.76-6.67,10.1s17.06,24.33,21.33,30.05,8.58,9.35,11.36,5.86,4.1-6.81,6.2-18S178.69,367.66,170.7,370.64Z"/><path class="cls-14" d="M139.24,367.93l-7.77-5.81c-.84-1.66-2.53-5.09-3.45-7.48-1.26-3.25-1.81-5.31-4.7-7.57s-9.73-5-10.6-5.93-1.22,2.61.36,4.26a7.33,7.33,0,0,0,2.6,2s-11.27-1.4-11.29-.52,9.58,13,13,15.82c1.45,1.19,4.69,2.32,6.53,3.65a16.7,16.7,0,0,1,2.5,2.21c-.43.24-.57.23-.62.2.4.56,6.37,9.08,8.2,8.71S142,376.54,139.24,367.93Z"/><rect class="cls-15" x="111.18" y="331.44" width="1.47" height="27.73" transform="translate(-174.97 122.91) rotate(-34.26)"/><path class="cls-14" d="M107.89,340.75s-6,6.48-5.28,7.09,3,2.84,3.62,2.56,3.78-5.5,3.94-6.09S107.89,340.75,107.89,340.75Z"/><path class="cls-14" d="M110.89,345.06s-4.54,6.66-4.11,7.26,6.17,7.31,6.89,7.77,4.77-3.43,4.77-3.43Z"/><path class="cls-19" d="M113.31,348.93s-4.24,6.66-3.8,6.67"/><line class="cls-19" x1="116.15" y1="353.53" x2="112.24" y2="358.15"/><path class="cls-14" d="M115.68,347.36l3.64,1.68s-.91,8.94,4,12"/><path class="cls-14" d="M125.85,368.72l0,0A0,0,0,0,0,125.85,368.72Z"/><path class="cls-15" d="M167.43,417.35s-35.38-42.22-39.22-46.79-12.5-6.42-17.58-4.83S99.37,381.5,98.14,387.37s-11.28,31.21-13,34.55-4.34,6.93-4.37,8.33,0,2.52,0,2.52l-1.76,3.9s8.12,1,11.5.5,8.22-4.33,9.1-6.27,3.36-6.76,6.35-8.86c4.26-3,11.67-23.06,11.67-23.06l14,30.58s27.7,3.91,33.89,3.19S167.43,417.35,167.43,417.35Z"/><path class="cls-15" d="M166.09,414s-4.32,5.53-4.34,6.65l0,1.12-23.62,2.35s-24.41-.48-28.07.29S53.34,439.25,50,439.75s-5-2.35-6.4-2.38-2.79-1.17-4.75-1.21-3.7,2.73-4.83,3a8.88,8.88,0,0,1-2.26.52c-.84,0-.24-2-.84,0s-2.11,7.54-.76,10.09a12,12,0,0,0,3.57,4s45.47,0,53,.19,30.91-1.91,33.72-2.14,43.45,2.26,49.9,2.38,27.79,0,31.48-2.19,8.42-14.42,7.67-19.21-39.77-18.46-39.77-18.46Z"/><path class="cls-18" d="M164.48,410a5.63,5.63,0,0,0-.34,3.08c.24,2,44.17,23,45.59,22.22s2.42-8.93,2.42-8.93l-47.62-18.9Z"/><path class="cls-18" d="M183.2,342.73s-8.07,11.07-11,19.71-7.77,38.3-9.52,41.91-1.8,5.86.71,6.47,26.45,11.18,34.52,14.43,15.31,6.19,16.53,1.16,1.29-8.11,1.15-15.69-.27-43.22-.91-53.62-6.2-27.34-13.5-26.92S183.2,342.73,183.2,342.73Z"/><path class="cls-14" d="M198.49,303.78c-.86-6.11-3.78-11.09-8.77-14.21a5.13,5.13,0,0,1,6.41-1s.67-2.39-1.27-3.22a3.64,3.64,0,0,0-3.47.46s.33-3.18,2.49-4.74,6.37.66,6.37.66-.9-8.26-6.25-6.77-4.64,6-4.64,6-1-3.74-4.18-4.07-5.63,2.29-5.63,2.29,2.71-2.34,5.56,1.7a7.4,7.4,0,0,1,1.14,7,22.46,22.46,0,0,0-2.59-.86c-7.52-2-16.1.16-19.76,3.82a21.77,21.77,0,0,0-8.06,3.88c-4,3.39-.26,8.07.29,8.71l.3,1.68a97.75,97.75,0,0,0,1.67,10.14c.75,2.41,2.06,3.24,2,4.57s-2.25,6.07-.69,7.7,2.91,1.12,2.91,1.12,6.13,12.89,8.81,11.88,7.29-5.71,7.29-5.71l6,3.84,11.15-12.29-2-5.36S199.66,312.05,198.49,303.78Z"/><path class="cls-15" d="M161.1,303.19c3.24-1.54,11.53-3.44,10.11-.94s-1.74,6.84.08,7.34,5.68,3.09,7,4,3,.29,3-1.09,1.46-4.1,4.41-2.66,3.13,4.19,2.38,7.38a7.31,7.31,0,0,1-3.07,4.53s3.52,2.83,8.94.12l-.35-.93s6-8.92,4.86-17.19c-.86-6.11-3.78-11.09-8.77-14.21a5.13,5.13,0,0,1,6.41-1s.67-2.39-1.27-3.22a3.64,3.64,0,0,0-3.47.46s.33-3.18,2.49-4.74,6.37.66,6.37.66-.9-8.26-6.25-6.77-4.64,6-4.64,6-1-3.74-4.18-4.07-5.63,2.29-5.63,2.29,2.71-2.34,5.56,1.7a7.4,7.4,0,0,1,1.14,7,22.46,22.46,0,0,0-2.59-.86c-7.52-2-16.1.16-19.76,3.82a21.77,21.77,0,0,0-8.06,3.88c-4,3.39-.26,8.07.29,8.71C156.13,303.4,157.86,304.74,161.1,303.19Z"/><path class="cls-19" d="M163.62,315.17l-.06,3a6.44,6.44,0,0,0,5.76-1.27"/><path class="cls-19" d="M160.23,312.35a5.24,5.24,0,0,1,6.68-1.25"/><path class="cls-19" d="M166.1,329s3.9-.15,6.28-4.69"/><path class="cls-15" d="M173.11,334.15c-2.32,1.11-5.24-1.93-6.61-2.19-1.11-.21-.92,2-.8,2.87,1.88,3.13,4.11,6.17,5.47,5.66,2.68-1,7.29-5.71,7.29-5.71l.21.13a8.42,8.42,0,0,0,1.14-3.38C179.84,329.7,175.42,333.05,173.11,334.15Z"/><path class="cls-14" d="M207.43,323.56s-8.37-2.69-13.24,2.55-18.09,20.69-15.28,20.75,7.73-7.71,13.39-10.12,9-2.35,10.91,1.61,8.41,29.36,11,24.92,7.27-13.33,4.91-21.8S210.2,325.3,207.43,323.56Z"/><path class="cls-18" d="M186.07,353.73s-7,12.22-7.67,18.94-2.92,34.74-2.92,34.74-2.77-1.74-4.21-.08-2.35,5.28-2.35,5.28-3.9-1.2-4.78.47a19.21,19.21,0,0,1-1.74,2.77l-24.29,8.23s38.4,2.15,41.49,1.93a8.86,8.86,0,0,0,5.1-2.14s2.48,2,6.72.41,5.69-3.54,6.87-6.88,6.76-44.21,6.76-44.21"/><path class="cls-14" d="M138.11,424.08s11.67.65,22.66,1.2c-1.59-2.59-.85-6.33,0-8.87Z"/></g><g id="Floor"><line class="cls-19" y1="453.01" x2="520.29" y2="453.01"/></g></svg>